HIERARCHY
ROOT Hips
{
	OFFSET 228.634003 92.561920 -263.051910
	CHANNELS 6 Xposition Yposition Zposition Zrotation Yrotation Xrotation 
	JOINT LeftUpLeg
	{
		OFFSET 0.103458 1.857820 10.548502
		CHANNELS 3 Zrotation Yrotation Xrotation
		JOINT LeftLeg
		{
			OFFSET 43.500000 -0.000023 -0.000011
			CHANNELS 3 Zrotation Yrotation Xrotation
			JOINT LeftFoot
			{
				OFFSET 42.372192 0.000038 0.000002
				CHANNELS 3 Zrotation Yrotation Xrotation
				JOINT LeftToe
				{
					OFFSET 17.299992 -0.000004 0.000006
					CHANNELS 3 Zrotation Yrotation Xrotation
					End Site
					{
						OFFSET 0.000000 0.000000 0.000000
					}
				}
			}
		}
	}
	JOINT RightUpLeg
	{
		OFFSET 0.103461 1.857814 -10.548508
		CHANNELS 3 Zrotation Yrotation Xrotation
		JOINT RightLeg
		{
			OFFSET 43.500042 -0.000015 0.000008
			CHANNELS 3 Zrotation Yrotation Xrotation
			JOINT RightFoot
			{
				OFFSET 42.372253 0.000008 0.000006
				CHANNELS 3 Zrotation Yrotation Xrotation
				JOINT RightToe
				{
					OFFSET 17.299973 -0.000014 0.000011
					CHANNELS 3 Zrotation Yrotation Xrotation
					End Site
					{
						OFFSET 0.000000 0.000000 0.000000
					}
				}
			}
		}
	}
	JOINT Spine
	{
		OFFSET 6.901966 -2.603737 -0.000007
		CHANNELS 3 Zrotation Yrotation Xrotation
		JOINT Spine1
		{
			OFFSET 12.588102 0.000017 0.000001
			CHANNELS 3 Zrotation Yrotation Xrotation
			JOINT Spine2
			{
				OFFSET 12.343197 -0.000013 0.000000
				CHANNELS 3 Zrotation Yrotation Xrotation
				JOINT Neck
				{
					OFFSET 25.832905 -0.000008 0.000000
					CHANNELS 3 Zrotation Yrotation Xrotation
					JOINT Head
					{
						OFFSET 11.766610 0.000009 -0.000002
						CHANNELS 3 Zrotation Yrotation Xrotation
						End Site
						{
							OFFSET 0.000000 0.000000 0.000000
						}
					}
				}
				JOINT LeftShoulder
				{
					OFFSET 19.745903 -1.480377 6.000115
					CHANNELS 3 Zrotation Yrotation Xrotation
					JOINT LeftArm
					{
						OFFSET 11.284125 -0.000014 -0.000024
						CHANNELS 3 Zrotation Yrotation Xrotation
						JOINT LeftForeArm
						{
							OFFSET 33.000046 -0.000012 0.000029
							CHANNELS 3 Zrotation Yrotation Xrotation
							JOINT LeftHand
							{
								OFFSET 25.199989 0.000034 0.000012
								CHANNELS 3 Zrotation Yrotation Xrotation
								End Site
								{
									OFFSET 0.000000 0.000000 0.000000
								}
							}
						}
					}
				}
				JOINT RightShoulder
				{
					OFFSET 19.746098 -1.480362 -6.000071
					CHANNELS 3 Zrotation Yrotation Xrotation
					JOINT RightArm
					{
						OFFSET 11.284137 -0.000006 -0.000008
						CHANNELS 3 Zrotation Yrotation Xrotation
						JOINT RightForeArm
						{
							OFFSET 33.000095 0.000017 0.000000
							CHANNELS 3 Zrotation Yrotation Xrotation
							JOINT RightHand
							{
								OFFSET 25.199778 0.000144 0.000423
								CHANNELS 3 Zrotation Yrotation Xrotation
								End Site
								{
									OFFSET 0.000000 0.000000 0.000000
								}
							}
						}
					}
				}
			}
		}
	}
}
MOTION
Frames: 7
Frame Time: 0.033333
31.612289 40.728699 246.261093 99.313300 74.528955 -36.227282 75.075684 -29.258700 152.621438 -129.040893 5.448764 4.161871 92.288922 -6.473965 -20.127931 21.454548 0.003090 0.000003 169.848623 32.854289 -177.169711 -72.648713 2.048006 12.960717 89.118888 -7.367510 9.592745 21.454562 -0.003108 -0.000017 16.604888 -2.603958 -2.148404 23.316481 -4.721947 -4.781716 22.998381 -4.750562 -4.753124 11.024261 -11.153417 -7.252270 -33.688849 -3.929029 -6.665787 94.168884 -76.329611 85.310497 -80.957003 6.306204 -24.237454 -83.775098 -12.018152 2.872775 -42.620401 -23.101797 87.024786 162.205026 83.608796 -16.378397 -34.630220 -11.765016 70.962155 -126.303790 -3.916652 -3.640750 -15.087775 10.798462 -66.087162 
29.347160 41.568668 248.100098 90.356798 71.855318 -45.074901 69.995799 -29.636003 143.462591 -129.765384 5.845957 4.897325 91.933943 -7.181725 -20.627422 21.454545 0.003089 0.000002 172.715198 35.392814 -172.777121 -71.978234 1.272271 12.066798 88.556947 -6.082368 13.580466 21.454558 -0.003108 -0.000015 17.276723 -2.413122 -2.254208 24.652289 -4.291328 -4.974102 24.334514 -4.321121 -4.948130 11.318859 -11.748059 -7.621905 -33.242920 -3.669151 -7.232978 88.489643 -75.151110 91.071400 -82.535760 4.380550 -24.621819 -80.603554 -13.984402 2.872543 -40.613247 -23.039845 86.556631 148.289103 83.479317 -30.413979 -33.337914 -8.981792 72.940635 -121.801903 -3.422627 -3.496533 -19.358518 11.671558 -63.876790 
27.230181 41.967442 249.653793 86.668783 69.042960 -49.631723 67.742800 -29.901708 135.731555 -126.383403 5.440811 5.942132 92.403915 -7.568766 -19.621677 21.454543 0.003090 -0.000001 174.470926 35.570703 -168.706410 -71.262533 -1.194599 15.071764 86.951669 -7.914506 13.922911 21.454553 -0.003108 -0.000015 17.541886 -2.335988 -2.208261 25.176547 -4.136421 -4.874750 24.858777 -4.165615 -4.849710 11.131313 -12.109157 -7.556700 -32.353281 -3.782759 -7.168139 87.303546 -74.535204 92.298525 -83.733666 3.138571 -23.322475 -76.796065 -15.903827 2.842825 -39.106535 -23.772569 85.587885 136.860394 82.617989 -41.981546 -33.586789 -7.650806 73.707529 -117.462301 -2.527890 -3.379801 -22.928294 11.382398 -64.867748 
25.791140 42.376942 251.145493 86.241390 66.373497 -51.171910 67.498907 -28.656608 130.323588 -121.861694 4.757816 1.659598 91.061291 -2.963085 -9.747609 21.454548 0.003092 -0.000002 175.120436 34.070490 -168.969072 -70.753793 -1.785439 17.583014 85.717972 -9.312740 15.092517 21.454563 -0.003106 -0.000017 17.530893 -2.212829 -2.224205 25.147435 -3.890246 -4.878656 24.829770 -3.919470 -4.855102 10.587532 -12.756802 -6.984859 -31.659003 -3.389765 -6.883847 87.256705 -74.612932 92.337894 -84.437913 2.109585 -21.070756 -72.874997 -17.571655 2.792824 -37.808714 -25.606866 84.207920 127.527814 81.594239 -51.450992 -34.828364 -6.831172 73.439580 -112.862401 -1.454810 -3.259221 -25.553589 10.808223 -66.263237 
24.400320 42.066509 252.918594 87.236303 62.913931 -52.770892 68.110189 -27.781897 128.089420 -122.941315 5.312596 -3.844908 97.170233 1.937960 -4.350107 21.454557 0.003091 0.000001 175.634995 32.070795 -171.698101 -70.444249 -1.338537 19.676737 84.603313 -10.340660 16.955291 21.454567 -0.003108 -0.000008 17.414687 -2.146900 -1.988457 24.904519 -3.816240 -4.394525 24.586651 -3.842542 -4.371404 10.421399 -12.758650 -6.464561 -31.918413 -3.293796 -6.391205 87.597436 -74.596683 92.002696 -84.345617 1.735236 -19.247579 -69.355619 -18.539063 2.713136 -37.040939 -27.658632 82.811754 121.514188 80.741524 -57.567232 -36.361502 -6.068891 71.827615 -107.685302 -0.219867 -3.120223 -28.158148 11.265869 -66.447413 
23.360371 42.046600 254.684799 89.507901 59.562234 -53.354323 67.657101 -26.901994 129.525208 -123.073097 5.358063 -5.931177 103.253889 3.629436 -2.393551 21.454553 0.003091 0.000000 175.529264 30.409310 -174.052768 -70.348257 -0.940401 20.350813 83.712957 -10.453661 18.300785 21.454553 -0.003105 -0.000016 17.308005 -1.989786 -1.843583 24.678674 -3.541201 -4.070754 24.360770 -3.565547 -4.049296 9.027543 -12.846105 -5.488886 -31.362859 -2.985898 -5.675194 86.906644 -75.097513 92.641278 -84.281611 1.428605 -18.358929 -66.142965 -19.323782 2.636297 -36.694700 -29.459951 81.658484 116.330471 80.254176 -62.815631 -37.751886 -3.980970 68.635560 -101.946400 1.413264 -2.980123 -30.006343 12.317352 -66.312340 
22.483500 42.416920 256.300812 91.255091 56.739628 -54.069803 66.126702 -26.390398 131.344497 -123.119392 5.577742 -7.857188 103.264503 4.963463 -1.429841 21.454548 0.003089 0.000000 175.364998 30.195798 -175.246398 -70.279887 -0.705697 19.050917 83.360922 -9.363647 18.955973 21.454562 -0.003108 -0.000019 17.283208 -1.885538 -1.945097 24.626102 -3.314497 -4.248376 24.308358 -3.339940 -4.228300 8.052454 -13.572554 -4.758400 -31.387031 -2.215485 -5.480691 86.473514 -75.390849 93.043740 -83.607779 0.669449 -18.012460 -63.094159 -19.961192 2.558764 -36.009696 -31.370758 80.828295 110.001194 80.008611 -69.186435 -39.573406 -1.091254 63.832810 -95.387574 4.188228 -2.880779 -31.234383 13.448578 -66.853475 
